# xmcd CD database file
#
# Track frame offsets:
#	150
#	12202
#	24715
#	39337
#	55237
#	69950
#	84910
#	98100
#	109922
#	120480
#	130772
#	143520
#
# Disc length: 2047 seconds
#
# Revision: 0
# Processed by: cddbd v1.4PL0 Copyright (c) Steve Scherf et al.
# Submitted via: CDex 1.50
#
DISCID=8f07fd0c
DTITLE=Joni James - Like Three O'Clock In The Morning
DYEAR=1900
DGENRE=Jazz
TTITLE0=In The Wee Small Hours Of The Morning
TTITLE1=As Long As He Needs Me
TTITLE2=Red Sails In The Sunset
TTITLE3=Every Time I Meet You
TTITLE4=The Second Time Around
TTITLE5=That's All
TTITLE6=You Go To My Head
TTITLE7=I Wanna Be Around
TTITLE8=The End Of The World
TTITLE9=No, Not Much
TTITLE10=My Coloring Book
TTITLE11=Autumn Nocturne
EXTD=
EXTT0=
EXTT1=
EXTT2=
EXTT3=
EXTT4=
EXTT5=
EXTT6=
EXTT7=
EXTT8=
EXTT9=
EXTT10=
EXTT11=
PLAYORDER=
